<?xml version="1.0" standalone="no"?>
<!DOCTYPE svg PUBLIC "-//W3C//DTD SVG 20010904//EN"
 "http://www.w3.org/TR/2001/REC-SVG-20010904/DTD/svg10.dtd">
<svg version="1.0" xmlns="http://www.w3.org/2000/svg"
 width="1000.000000pt" height="400.000000pt" viewBox="0 0 1000.000000 400.000000"
 preserveAspectRatio="xMidYMid meet">

<g transform="translate(0.000000,400.000000) scale(0.100000,-0.100000)"
fill="#000000" stroke="none">
<path d="M1360 2760 c0 -28 -3 -30 -35 -30 l-35 0 0 -320 0 -320 -30 0 c-27 0
-30 -3 -30 -30 0 -29 -1 -30 -50 -30 l-50 0 0 -35 c0 -35 0 -35 -45 -35 -43 0
-45 -1 -45 -30 0 -28 -3 -30 -35 -30 -32 0 -35 -2 -35 -30 l0 -30 -65 0 -65 0
0 30 c0 27 -3 30 -30 30 -27 0 -30 3 -30 30 0 27 -3 30 -30 30 -29 0 -30 1
-30 50 0 49 -1 50 -30 50 l-30 0 0 -205 0 -205 30 0 c27 0 30 -3 30 -30 0 -27
3 -30 30 -30 28 0 30 -3 30 -35 l0 -35 65 0 65 0 0 -30 c0 -27 3 -30 30 -30
l30 0 0 -80 c0 -73 2 -80 20 -80 17 0 20 -7 20 -50 l0 -50 60 0 60 0 0 30 c0
27 -3 30 -30 30 -29 0 -30 1 -30 50 0 49 1 50 30 50 28 0 30 3 30 35 0 32 2
35 30 35 27 0 30 3 30 30 0 28 3 30 35 30 32 0 35 2 35 30 0 27 3 30 30 30
l30 0 0 -80 c0 -73 2 -80 20 -80 19 0 20 -7 20 -95 l0 -95 75 0 75 0 0 30 c0
29 -2 30 -45 30 l-45 0 0 145 0 145 30 0 c28 0 30 3 30 35 0 32 2 35 30 35 27
0 30 3 30 30 0 28 3 30 35 30 32 0 35 2 35 29 0 25 4 30 28 33 l27 3 3 143 3
142 49 0 c49 0 50 -1 50 -30 0 -27 3 -30 30 -30 l30 0 0 60 0 60 -80 0 -80 0
0 100 0 100 145 0 c173 0 200 18 33 22 l-113 3 -3 48 -3 47 190 0 191 0 0 160
0 160 -45 0 c-43 0 -45 1 -45 30 l0 30 -330 0 -330 0 0 -30z m180 -160 c0 -27
-3 -30 -30 -30 -27 0 -30 3 -30 30 0 27 3 30 30 30 27 0 30 -3 30 -30z"/>
<path d="M4990 2365 c0 -58 -2 -105 -4 -105 -3 0 -20 9 -38 19 -113 65 -262 9
-318 -121 -26 -61 -31 -169 -10 -233 31 -95 125 -175 208 -175 47 0 119 20
133 36 16 20 29 17 29 -6 0 -19 7 -20 90 -20 l90 0 0 355 0 355 -90 0 -90 0 0
-105z m160 -255 l0 -330 -65 0 -65 0 0 52 0 53 -31 -38 c-41 -50 -77 -67 -144
-67 -99 0 -179 64 -206 164 -18 66 -7 176 24 228 74 127 245 145 331 36 l26
-33 0 133 0 132 65 0 65 0 0 -330z"/>
<path d="M4844 2156 c-52 -23 -74 -61 -74 -125 0 -87 45 -140 118 -141 45 0
89 24 108 62 20 39 20 122 -1 154 -33 51 -99 73 -151 50z m97 -26 c27 -15 49
-63 49 -109 0 -49 -39 -98 -85 -106 -37 -7 -91 24 -105 61 -21 55 -3 130 37
153 23 13 79 14 104 1z"/>
<path d="M2457 2102 c-64 -180 -117 -330 -117 -334 0 -5 42 -8 93 -8 l93 0 18
55 17 55 113 0 113 0 20 -52 20 -53 98 -3 c90 -3 97 -1 90 15 -5 14 -133 365
-227 626 l-10 27 -101 0 -102 0 -118 -328z m413 3 c60 -165 110 -306 110 -313
0 -10 -17 -12 -67 -10 l-68 3 -20 58 -20 58 -130 -3 -130 -3 -20 -57 -20 -58
-68 0 c-51 0 -68 3 -65 13 3 6 54 148 113 315 l109 303 84 -3 83 -3 109 -300z"/>
<path d="M2631 2147 c-24 -73 -46 -138 -48 -144 -4 -10 18 -13 91 -13 53 0 96
4 96 8 0 9 -88 273 -93 278 -1 2 -22 -56 -46 -129z m78 -40 l30 -87 -60 0
c-32 0 -59 3 -59 7 0 13 54 172 57 169 2 -1 16 -42 32 -89z"/>
<path d="M3717 2424 c-4 -4 -7 -34 -7 -66 0 -58 0 -58 -30 -58 l-30 0 0 -80 0
-80 29 0 29 0 4 -127 c7 -203 39 -244 200 -251 l88 -4 0 81 0 81 -50 0 -50 0
0 110 0 110 50 0 50 0 0 80 0 80 -50 0 -49 0 -3 63 -3 62 -85 3 c-47 1 -89 0
-93 -4z m153 -89 l0 -65 55 0 55 0 0 -50 0 -50 -55 0 -55 0 0 -118 c0 -137 6
-151 68 -159 l43 -6 -3 -51 -3 -51 -74 1 c-84 2 -115 18 -143 75 -15 27 -18
60 -18 172 l0 137 -35 0 -35 0 0 49 c0 49 1 50 33 53 32 3 32 3 35 66 l3 62
64 0 65 0 0 -65z"/>
<path d="M4227 2296 c-71 -20 -127 -65 -161 -129 -52 -101 -35 -259 37 -335
58 -62 176 -94 269 -72 92 22 148 69 183 154 l15 36 -96 0 c-87 0 -97 -2 -114
-22 -26 -33 -85 -30 -116 6 -13 15 -24 31 -24 37 0 5 72 9 174 9 169 0 175 1
181 21 17 53 -25 187 -73 232 -67 63 -182 89 -275 63z m195 -40 c79 -38 118
-98 126 -193 l5 -63 -182 0 c-118 0 -181 -4 -181 -10 0 -34 32 -82 64 -95 50
-21 80 -19 114 10 25 21 40 25 96 25 78 0 82 -8 31 -67 -50 -59 -106 -83 -191
-83 -85 0 -137 22 -185 79 -112 130 -61 350 93 408 46 17 165 11 210 -11z"/>
<path d="M4254 2166 c-25 -11 -64 -66 -64 -90 0 -3 50 -6 111 -6 l110 0 -3 32
c-6 58 -90 93 -154 64z m116 -41 c13 -14 21 -27 18 -30 -3 -3 -43 -5 -89 -3
l-84 3 27 28 c37 37 94 38 128 2z"/>
<path d="M5427 2296 c-71 -20 -127 -65 -161 -129 -52 -101 -35 -259 37 -335
58 -62 176 -94 269 -72 92 22 148 69 183 154 l15 36 -96 0 c-87 0 -97 -2 -114
-22 -26 -33 -85 -30 -116 6 -13 15 -24 31 -24 37 0 5 72 9 174 9 169 0 175 1
181 21 17 53 -25 187 -73 232 -67 63 -182 89 -275 63z m195 -40 c79 -38 118
-98 126 -193 l5 -63 -182 0 c-118 0 -181 -4 -181 -10 0 -34 32 -82 64 -95 50
-21 80 -19 114 10 25 21 40 25 96 25 78 0 82 -8 31 -67 -50 -59 -106 -83 -191
-83 -85 0 -137 22 -185 79 -112 130 -61 350 93 408 46 17 165 11 210 -11z"/>
<path d="M5454 2166 c-25 -11 -64 -66 -64 -90 0 -3 50 -6 111 -6 l110 0 -3 32
c-6 58 -90 93 -154 64z m116 -41 c13 -14 21 -27 18 -30 -3 -3 -43 -5 -89 -3
l-84 3 27 28 c37 37 94 38 128 2z"/>
<path d="M5978 2296 c-111 -41 -168 -131 -168 -267 0 -212 173 -337 342 -249
l38 20 0 -39 c0 -24 -8 -48 -21 -65 -17 -22 -28 -26 -71 -26 -43 0 -54 4 -78
30 -27 29 -31 30 -113 30 l-85 0 8 -34 c28 -124 125 -190 280 -189 87 0 131
16 189 69 69 62 74 89 79 427 l4 297 -96 0 c-89 0 -96 -1 -96 -20 0 -25 -1
-25 -42 -1 -45 27 -124 35 -170 17z m146 -30 c18 -7 47 -31 64 -52 l32 -39 0
48 0 47 65 0 66 0 -3 -287 c-3 -284 -3 -289 -28 -338 -18 -36 -38 -58 -74 -80
-46 -28 -56 -30 -145 -30 -79 0 -103 4 -136 22 -50 27 -80 58 -100 106 l-15
37 69 0 c50 0 72 -4 78 -14 25 -44 117 -59 170 -26 38 23 53 67 53 160 l0 65
-31 -38 c-42 -51 -77 -67 -147 -67 -79 0 -135 36 -177 111 -27 48 -30 63 -30
139 0 69 5 93 23 128 25 47 69 90 110 108 37 17 116 17 156 0z"/>
<path d="M6045 2156 c-56 -25 -70 -51 -70 -128 0 -68 1 -70 39 -105 35 -33 42
-35 87 -31 60 6 95 35 110 91 20 74 -6 143 -66 171 -40 19 -60 20 -100 2z
m116 -45 c23 -24 29 -38 29 -75 0 -60 -16 -92 -57 -111 -77 -37 -156 37 -139
130 16 82 109 114 167 56z"/>
<path d="M7269 2301 c-51 -10 -124 -56 -152 -94 -40 -54 -52 -97 -52 -182 1
-97 26 -157 88 -210 139 -119 391 -56 432 108 l7 27 -94 0 c-82 0 -97 -3 -113
-20 -10 -11 -25 -22 -35 -25 -22 -7 -70 11 -86 33 -31 40 -22 42 161 42 l175
0 0 65 c0 106 -42 181 -126 227 -54 29 -144 42 -205 29z m152 -32 c86 -26 147
-108 156 -211 l6 -58 -183 0 -182 0 6 -32 c8 -40 23 -58 63 -75 47 -19 78 -16
111 12 25 21 40 25 96 25 36 0 66 -4 66 -9 0 -20 -49 -78 -90 -106 -38 -25
-57 -30 -118 -34 -166 -8 -262 83 -262 249 0 154 90 248 239 250 29 0 71 -5
92 -11z"/>
<path d="M7283 2165 c-29 -12 -63 -58 -63 -85 0 -6 40 -10 110 -10 105 0 110
1 110 21 0 33 -19 60 -55 75 -42 17 -61 17 -102 -1z m109 -32 c37 -33 23 -43
-62 -43 -44 0 -80 3 -80 7 0 4 10 17 22 30 26 28 92 32 120 6z"/>
<path d="M8830 2301 c-94 -20 -177 -95 -201 -179 -41 -144 12 -281 129 -339
77 -38 192 -40 264 -4 60 29 125 101 139 155 29 106 3 225 -63 293 -57 59
-181 93 -268 74z m158 -35 c96 -34 151 -106 159 -209 13 -164 -86 -277 -246
-277 -120 0 -194 42 -237 134 -65 139 -2 303 133 352 50 18 141 17 191 0z"/>
<path d="M8832 2150 c-42 -26 -55 -60 -50 -139 4 -57 8 -67 36 -92 53 -48 136
-37 172 23 24 40 27 126 5 168 -30 58 -104 76 -163 40z m125 -34 c25 -22 28
-31 28 -84 0 -46 -5 -65 -20 -82 -30 -33 -62 -42 -102 -29 -41 13 -63 52 -63
113 0 93 89 140 157 82z"/>
<path d="M3060 2030 l0 -270 95 0 95 0 0 166 c0 91 4 174 10 184 14 26 71 43
103 31 51 -20 57 -41 57 -218 l0 -163 90 0 90 0 0 184 c0 202 -9 247 -58 300
-15 15 -41 35 -59 42 -47 20 -140 17 -190 -6 -43 -19 -43 -19 -43 0 0 18 -7
20 -95 20 l-95 0 0 -270z m417 229 c30 -15 52 -35 71 -67 26 -46 27 -52 30
-230 l4 -183 -69 3 -68 3 -5 168 -5 169 -28 24 c-42 36 -106 33 -149 -5 l-33
-29 -3 -166 -3 -166 -65 0 -64 0 0 245 0 245 65 0 65 0 0 -45 0 -45 36 40 c56
62 142 77 221 39z"/>
<path d="M6460 2148 c0 -249 23 -324 112 -369 59 -30 152 -30 202 -1 45 27 46
27 46 2 0 -19 7 -20 90 -20 l90 0 0 270 0 270 -90 0 -90 0 0 -161 c0 -161 -5
-190 -39 -216 -23 -18 -76 -16 -100 5 -31 25 -40 78 -41 235 l0 137 -90 0 -90
0 0 -152z m160 -23 c0 -203 16 -235 115 -235 38 0 52 5 76 29 l29 29 0 161 0
161 70 0 70 0 0 -245 0 -246 -67 3 -68 3 -3 43 -3 42 -24 -29 c-63 -74 -193
-83 -264 -18 -52 48 -61 88 -61 275 l0 172 65 0 65 0 0 -145z"/>
<path d="M7660 2030 l0 -270 95 0 95 0 0 168 c0 163 1 169 23 190 16 15 36 22
65 22 37 0 45 -4 62 -32 18 -29 20 -51 20 -190 l0 -158 90 0 90 0 0 149 c0
199 13 231 92 231 74 -1 88 -39 88 -237 l0 -143 90 0 90 0 0 173 c0 199 -11
254 -62 306 -44 45 -85 61 -158 61 -64 0 -115 -19 -157 -59 l-22 -21 -26 26
c-14 14 -41 32 -60 40 -49 20 -143 18 -188 -5 -36 -18 -37 -18 -37 0 0 17 -8
19 -95 19 l-95 0 0 -270z m392 238 c22 -6 53 -28 74 -50 l35 -39 25 30 c55 66
160 89 239 52 91 -42 105 -83 105 -306 l0 -175 -64 0 -65 0 -3 165 c-3 164 -3
165 -30 192 -22 22 -36 27 -78 27 -46 1 -55 -3 -81 -32 l-29 -32 0 -161 0
-160 -67 3 -68 3 -5 162 c-5 153 -6 163 -29 187 -32 34 -78 42 -125 22 -56
-23 -66 -58 -66 -231 l0 -145 -65 0 -65 0 0 245 0 245 65 0 65 0 0 -41 0 -41
29 31 c53 57 122 73 203 49z"/>
<path d="M9240 2030 l0 -270 90 0 90 0 0 160 c0 98 4 169 11 184 15 33 66 50
104 36 51 -19 54 -32 55 -212 l0 -168 90 0 90 0 0 193 c0 186 -1 195 -25 243
-35 69 -80 98 -164 102 -62 4 -89 -3 -153 -36 -5 -2 -8 6 -8 17 0 20 -5 21
-90 21 l-90 0 0 -270z m407 231 c26 -12 52 -35 70 -62 28 -42 28 -43 31 -231
l4 -188 -66 0 -66 0 0 138 c0 155 -10 202 -47 232 -36 28 -104 27 -138 -2 -35
-31 -44 -79 -45 -235 l0 -133 -65 0 -65 0 0 245 0 245 65 0 65 0 0 -47 0 -48
27 34 c52 66 149 88 230 52z"/>
</g>
</svg>
