<?xml version="1.0" encoding="UTF-8"?>
<svg version="1.1" xmlns="http://www.w3.org/2000/svg" width="1000" height="400">
<path d="M0 0 C22.77 0 45.54 0 69 0 C69.33 1.65 69.66 3.3 70 5 C71.299375 5.144375 72.59875 5.28875 73.9375 5.4375 C77.875 5.875 77.875 5.875 79 7 C79.1007812 9.36398468 79.13973215 11.69811311 79.1328125 14.0625 C79.13376923 14.76898682 79.13472595 15.47547363 79.13571167 16.20336914 C79.13639333 17.69970793 79.13454005 19.19604967 79.13037109 20.69238281 C79.12502257 22.99030157 79.13031651 25.28802486 79.13671875 27.5859375 C79.13605797 29.03645877 79.1347768 30.48697991 79.1328125 31.9375 C79.13483673 32.6291626 79.13686096 33.3208252 79.13894653 34.03344727 C79.11495224 38.88504776 79.11495224 38.88504776 78 40 C75.1883662 40.08861992 72.40141745 40.11522355 69.58984375 40.09765625 C68.74780899 40.0962413 67.90577423 40.09482635 67.03822327 40.09336853 C64.33794665 40.08775263 61.63775172 40.07519748 58.9375 40.0625 C57.11132932 40.05748705 55.28515734 40.05292379 53.45898438 40.04882812 C48.97262458 40.03777804 44.48632616 40.02050279 40 40 C40 42.31 40 44.62 40 47 C47.26 47 54.52 47 62 47 C62.33 48.65 62.66 50.3 63 52 C53.43 52 43.86 52 34 52 C34 57.94 34 63.88 34 70 C39.28 70 44.56 70 50 70 C50 74.62 50 79.24 50 84 C47.36 84 44.72 84 42 84 C42 82.02 42 80.04 42 78 C38.535 78.495 38.535 78.495 35 79 C34.67 87.91 34.34 96.82 34 106 C32.35 106.66 30.7 107.32 29 108 C27.63921965 110.52372901 27.63921965 110.52372901 27 113 C25.02 113 23.04 113 21 113 C21 114.98 21 116.96 21 119 C19.02 119 17.04 119 15 119 C15 120.98 15 122.96 15 125 C13.35 125.66 11.7 126.32 10 127 C9.67 135.58 9.34 144.16 9 153 C11.97 153 14.94 153 18 153 C18 155.64 18 158.28 18 161 C15.18743719 161.02684312 12.37512759 161.04676188 9.5625 161.0625 C8.76005859 161.07087891 7.95761719 161.07925781 7.13085938 161.08789062 C5.08704779 161.0965143 3.04316098 161.0522815 1 161 C0 160 0 160 -0.11352539 158.23413086 C-0.10567017 157.11083374 -0.10567017 157.11083374 -0.09765625 155.96484375 C-0.09443359 155.15595703 -0.09121094 154.34707031 -0.08789062 153.51367188 C-0.07532227 152.2384668 -0.07532227 152.2384668 -0.0625 150.9375 C-0.05798828 150.08349609 -0.05347656 149.22949219 -0.04882812 148.34960938 C-0.03700373 146.23304337 -0.01906769 144.11651315 0 142 C-0.99 141.67 -1.98 141.34 -3 141 C-3.33 136.38 -3.66 131.76 -4 127 C-4.66 127 -5.32 127 -6 127 C-6.66 128.65 -7.32 130.3 -8 132 C-9.98 132 -11.96 132 -14 132 C-14 133.98 -14 135.96 -14 138 C-15.98 138 -17.96 138 -20 138 C-20 139.98 -20 141.96 -20 144 C-22.475 144.99 -22.475 144.99 -25 146 C-25.33 148.31 -25.66 150.62 -26 153 C-24.02 153 -22.04 153 -20 153 C-19.95758277 155.33294775 -19.95907063 157.66702567 -20 160 C-21 161 -21 161 -23.90625 161.1328125 C-25.0921875 161.13023437 -26.278125 161.12765625 -27.5 161.125 C-28.6859375 161.12757813 -29.871875 161.13015625 -31.09375 161.1328125 C-34 161 -34 161 -35 160 C-35.07179964 158.48071962 -35.08392007 156.95832518 -35.0625 155.4375 C-35.05347656 154.61121094 -35.04445312 153.78492188 -35.03515625 152.93359375 C-35.02355469 152.29550781 -35.01195312 151.65742188 -35 151 C-35.99 151 -36.98 151 -38 151 C-38 145.72 -38 140.44 -38 135 C-39.98 135 -41.96 135 -44 135 C-44.33 133.35 -44.66 131.7 -45 130 C-45.78246094 129.93941406 -46.56492187 129.87882813 -47.37109375 129.81640625 C-48.38300781 129.73261719 -49.39492187 129.64882812 -50.4375 129.5625 C-51.95150391 129.44068359 -51.95150391 129.44068359 -53.49609375 129.31640625 C-56 129 -56 129 -57 128 C-57.04063832 126.33382885 -57.042721 124.66611905 -57 123 C-57.804375 123.020625 -58.60875 123.04125 -59.4375 123.0625 C-62 123 -62 123 -63 122 C-63.04080783 120.00041636 -63.04254356 117.99954746 -63 116 C-64.98 116 -66.96 116 -69 116 C-70.65702967 112.68594065 -70.14162705 108.98621952 -70.1328125 105.34375 C-70.13376923 104.48567749 -70.13472595 103.62760498 -70.13571167 102.74353027 C-70.13639272 100.92781501 -70.13454367 99.11209732 -70.13037109 97.29638672 C-70.12502178 94.51133779 -70.13031861 91.72645014 -70.13671875 88.94140625 C-70.13605796 87.17968714 -70.13477676 85.41796814 -70.1328125 83.65625 C-70.13483673 82.81976929 -70.13686096 81.98328857 -70.13894653 81.12145996 C-70.11495917 75.22991834 -70.11495917 75.22991834 -69 73 C-66.66705225 72.95758277 -64.33297433 72.95907063 -62 73 C-61 74 -61 74 -60.90234375 75.84765625 C-60.95117188 78.92382812 -60.95117188 78.92382812 -61 82 C-60.195625 81.979375 -59.39125 81.95875 -58.5625 81.9375 C-56 82 -56 82 -55 83 C-54.95919217 84.99958364 -54.95745644 87.00045254 -55 89 C-53.02 89 -51.04 89 -49 89 C-49 90.98 -49 92.96 -49 95 C-44.05 94.505 -44.05 94.505 -39 94 C-38.34 92.35 -37.68 90.7 -37 89 C-35.02 89 -33.04 89 -31 89 C-31.020625 88.030625 -31.04125 87.06125 -31.0625 86.0625 C-31 83 -31 83 -30 82 C-27.67182036 81.63239269 -25.3381615 81.29758419 -23 81 C-22.34 79.35 -21.68 77.7 -21 76 C-18.03 76 -15.06 76 -12 76 C-12 74.02 -12 72.04 -12 70 C-10.02 70 -8.04 70 -6 70 C-6.00222061 69.21295181 -6.00444122 68.42590363 -6.00672913 67.61500549 C-6.02673113 60.2130967 -6.04197366 52.81120092 -6.05181217 45.40927219 C-6.0570402 41.60348423 -6.06413638 37.79771852 -6.07543945 33.99194336 C-6.0862712 30.32207456 -6.09227744 26.65222722 -6.09487724 22.98234367 C-6.09673097 21.57925008 -6.1003506 20.17615771 -6.10573006 18.7730732 C-6.11294419 16.8143032 -6.11340809 14.8555118 -6.11352539 12.89672852 C-6.115746 11.77976089 -6.11796661 10.66279327 -6.12025452 9.51197815 C-6 7 -6 7 -5 6 C-3.33382885 5.95936168 -1.66611905 5.957279 0 6 C0 4.02 0 2.04 0 0 Z " fill="#8A8A8A" transform="translate(134,120)"/>
<path d="M0 0 C6.27 0 12.54 0 19 0 C19.33 0.99 19.66 1.98 20 3 C20.928125 2.505 21.85625 2.01 22.8125 1.5 C28.27298803 -0.82596853 34.40405447 -0.97348802 40.12109375 0.57421875 C42.79063444 1.65925787 44.93436146 2.94401418 47.125 4.8125 C48.053125 5.4003125 48.053125 5.4003125 49 6 C51.51439567 5.37140108 53.50181347 4.30141423 55.7109375 2.96484375 C62.09051536 -0.66760976 68.14623803 -1.06947298 75.3046875 0.5078125 C82.26307225 2.79226334 85.90635619 7.30770923 89.203125 13.64453125 C91.80602678 21.33840269 91.15438734 29.77455775 91.13037109 37.79321289 C91.12495213 39.95661227 91.13037234 42.11980958 91.13671875 44.28320312 C91.13605898 45.65625046 91.13477993 47.02929767 91.1328125 48.40234375 C91.13168457 49.64491943 91.13055664 50.88749512 91.12939453 52.16772461 C91 55 91 55 90 56 C88.58429877 56.08651611 87.164405 56.10704904 85.74609375 56.09765625 C84.89208984 56.09443359 84.03808594 56.09121094 83.15820312 56.08789062 C81.81145508 56.07532227 81.81145508 56.07532227 80.4375 56.0625 C79.53580078 56.05798828 78.63410156 56.05347656 77.70507812 56.04882812 C75.46998686 56.03700225 73.23502563 56.0205222 71 56 C70.97494385 55.05680908 70.9498877 54.11361816 70.92407227 53.1418457 C70.82870191 49.62871337 70.72948275 46.11573292 70.62768555 42.6027832 C70.58448452 41.08492245 70.54279952 39.56701774 70.50268555 38.04907227 C70.44462188 35.86200741 70.38103344 33.67516082 70.31640625 31.48828125 C70.27974854 30.17384033 70.24309082 28.85939941 70.20532227 27.50512695 C70.03239364 24.55300302 69.67839286 21.87049504 69 19 C62.90258936 17.79979239 62.90258936 17.79979239 57 19 C55.79838489 22.60484534 55.76982864 25.97289857 55.68359375 29.73046875 C55.66281265 30.48088943 55.64203156 31.23131012 55.62062073 32.00447083 C55.55530074 34.39872184 55.49632208 36.79308139 55.4375 39.1875 C55.39429807 40.81186013 55.35068324 42.43620933 55.30664062 44.06054688 C55.1988611 48.04025502 55.09965785 52.02004701 55 56 C48.4 56 41.8 56 35 56 C34.94392578 52.37064453 34.94392578 52.37064453 34.88671875 48.66796875 C34.84050748 46.32469642 34.78927257 43.9815841 34.73754883 41.63842773 C34.70429464 40.00994591 34.67626416 38.38134869 34.65356445 36.75268555 C34.62002643 34.41144639 34.56771415 32.07126514 34.51171875 29.73046875 C34.50532883 29.00224411 34.4989389 28.27401947 34.49235535 27.52372742 C34.38252741 23.55464287 34.38252741 23.55464287 32.65161133 20.0715332 C30.10347536 18.41835231 28.01370498 18.12300837 25 18 C22.57339591 19.24609399 21.33050448 20.06042494 20.41430664 22.66503906 C19.85085402 25.84056108 19.77607719 28.94816642 19.68359375 32.171875 C19.66281265 32.8542926 19.64203156 33.53671021 19.62062073 34.23980713 C19.55547948 36.40977356 19.49640596 38.57985624 19.4375 40.75 C19.39428103 42.22527221 19.35066568 43.70053287 19.30664062 45.17578125 C19.19909189 48.78373699 19.09975648 52.39178678 19 56 C12.73 56 6.46 56 0 56 C0 37.52 0 19.04 0 0 Z M3 4 C3 19.84 3 35.68 3 52 C6.96 52 10.92 52 15 52 C15.04898438 50.13214844 15.09796875 48.26429688 15.1484375 46.33984375 C15.22349338 43.87238165 15.29903999 41.40493444 15.375 38.9375 C15.4059375 37.70837891 15.436875 36.47925781 15.46875 35.21289062 C15.95393967 20.21244326 15.95393967 20.21244326 19.77734375 16.078125 C22.54043107 14.73785769 24.50157518 14.66670953 27.5625 14.75 C28.98755859 14.77320313 28.98755859 14.77320313 30.44140625 14.796875 C33 15 33 15 36 16 C38.20611789 20.00374696 38.30274809 23.76129747 38.4140625 28.26953125 C38.43342865 28.95053391 38.4527948 29.63153656 38.4727478 30.33317566 C38.53218132 32.49282593 38.578782 34.65253057 38.625 36.8125 C38.66321328 38.28322544 38.70226694 39.75392929 38.7421875 41.22460938 C38.83785183 44.81620789 38.92201575 48.40796913 39 52 C42.96 52 46.92 52 51 52 C51.01458252 51.11739502 51.02916504 50.23479004 51.04418945 49.32543945 C51.10542067 46.03561357 51.1796033 42.7466007 51.26245117 39.45727539 C51.29560557 38.03648798 51.32366692 36.61557187 51.34643555 35.19458008 C51.38015847 33.1460918 51.43247745 31.0987728 51.48828125 29.05078125 C51.51446533 27.82012939 51.54064941 26.58947754 51.56762695 25.3215332 C52.03316526 21.74522115 52.83546901 19.85592962 55 17 C59.2340218 14.1773188 63.02817503 14.214975 68 15 C71.62350611 17.66216775 73.22329691 19.64513565 74 24 C74.1472796 26.1694408 74.2472547 28.34229053 74.31640625 30.515625 C74.35830078 31.76601562 74.40019531 33.01640625 74.44335938 34.3046875 C74.48267578 35.60664063 74.52199219 36.90859375 74.5625 38.25 C74.60568359 39.56742188 74.64886719 40.88484375 74.69335938 42.2421875 C74.79941854 45.49466854 74.90021153 48.74732053 75 52 C78.96 52 82.92 52 87 52 C87.0498487 47.87406157 87.08592957 43.74824248 87.10986328 39.62207031 C87.11985248 38.22164858 87.13344854 36.82124732 87.15087891 35.42089844 C87.52565771 20.75152947 87.52565771 20.75152947 81 8 C75.88818141 3.95314362 71.50033969 3.26899059 65.015625 3.47265625 C60.14755348 4.32393819 56.59875299 6.68366036 53 10 C52.34 10.99 51.68 11.98 51 13 C50.34 13 49.68 13 49 13 C47.46682188 11.3184498 46.11558567 9.53129929 44.73046875 7.7265625 C41.27476361 4.27865805 37.36169995 3.69286103 32.625 3.625 C25.8158848 3.76228055 21.91898355 6.00173892 17.0625 10.75 C16.381875 11.4925 15.70125 12.235 15 13 C15 10.03 15 7.06 15 4 C11.04 4 7.08 4 3 4 Z " fill="#D9D9D9" transform="translate(766,169)"/>
<path d="M0 0 C2.1875 1.09765625 2.1875 1.09765625 5.3125 3.09765625 C5.3125 1.77765625 5.3125 0.45765625 5.3125 -0.90234375 C11.5825 -0.90234375 17.8525 -0.90234375 24.3125 -0.90234375 C24.44883178 6.97413747 24.55857312 14.84995727 24.62337303 22.72729874 C24.65449684 26.38635849 24.69661192 30.0445594 24.76513672 33.703125 C24.83102098 37.24344894 24.86634795 40.78295457 24.88176346 44.32384491 C24.89801205 46.31124405 24.94473787 48.29832041 24.99227905 50.28521729 C24.99545415 58.97552048 23.51253961 65.96444393 18.3125 73.09765625 C9.05618288 80.43470811 -0.32226311 80.88428515 -11.6875 80.09765625 C-14.92773643 79.49160319 -16.71628046 78.69331119 -19.6875 77.09765625 C-20.60208984 76.62199219 -20.60208984 76.62199219 -21.53515625 76.13671875 C-26.95680829 72.89063409 -29.68546252 68.00228292 -31.6875 62.09765625 C-31.81640625 59.28515625 -31.81640625 59.28515625 -31.6875 57.09765625 C-28.58364789 56.98152421 -25.48035338 56.91043596 -22.375 56.84765625 C-21.49392578 56.81414062 -20.61285156 56.780625 -19.70507812 56.74609375 C-17.30316969 56.70956282 -15.05949417 56.71315622 -12.6875 57.09765625 C-10.82421875 59.0546875 -10.82421875 59.0546875 -9.6875 61.09765625 C-5.41087231 62.13232424 -2.97370899 62.51707223 1.1875 61.16015625 C4.31418129 58.12543617 4.54587123 55.34896122 5.3125 51.09765625 C4.36375 51.73703125 3.415 52.37640625 2.4375 53.03515625 C-3.47698464 56.37397822 -9.78775432 56.90883566 -16.3125 55.09765625 C-23.6782795 52.21652834 -28.75188871 47.13525778 -31.99609375 39.9921875 C-35.03056581 31.67739117 -34.73152027 21.78597105 -31.86328125 13.453125 C-25.63358529 0.97303642 -13.46134958 -4.51972638 0 0 Z M-22.5625 6.78515625 C-28.88766939 13.66842883 -30.04358093 21.44391551 -29.96875 30.5078125 C-29.47417366 36.8205299 -27.3506841 41.07486478 -23.375 45.91015625 C-19.21565297 49.29567127 -15.7320183 51.83744483 -10.25 52.53515625 C-3.91741904 51.75747087 0.48278946 50.45488017 4.6875 45.47265625 C5.14898438 44.86164063 5.61046875 44.250625 6.0859375 43.62109375 C7.3125 42.09765625 7.3125 42.09765625 9.3125 41.09765625 C9.11086989 44.16423959 8.87741366 47.22268611 8.625 50.28515625 C8.57150391 51.14947266 8.51800781 52.01378906 8.46289062 52.90429688 C8.07446778 57.31205178 7.72543629 59.5610452 4.96484375 63.1484375 C1.503278 65.69235696 -1.48170209 66.36658827 -5.6875 66.09765625 C-8.84661441 65.44095845 -11.85239525 64.66099629 -14.6875 63.09765625 C-15.1825 61.61265625 -15.1825 61.61265625 -15.6875 60.09765625 C-19.6475 60.09765625 -23.6075 60.09765625 -27.6875 60.09765625 C-26.17905325 65.85718019 -23.78645772 70.20217726 -18.67578125 73.328125 C-9.78910887 77.62412543 -1.12315131 77.96689364 8.3125 75.09765625 C13.68676438 72.54463232 17.15774816 68.67828447 19.3125 63.09765625 C21.33811071 55.81424077 21.58226396 48.69955965 21.5078125 41.18359375 C21.5049826 40.08794098 21.50215271 38.99228821 21.49923706 37.86343384 C21.48813513 34.39972528 21.46304939 30.93628528 21.4375 27.47265625 C21.42745729 25.10937876 21.41833371 22.74609718 21.41015625 20.3828125 C21.38822857 14.62099191 21.35376847 8.85936945 21.3125 3.09765625 C17.3525 3.09765625 13.3925 3.09765625 9.3125 3.09765625 C9.3125 6.72765625 9.3125 10.35765625 9.3125 14.09765625 C8.6525 14.09765625 7.9925 14.09765625 7.3125 14.09765625 C7.10625 13.37578125 6.9 12.65390625 6.6875 11.91015625 C4.55882967 7.55605784 1.65749526 5.08856247 -2.73046875 3.234375 C-10.01238121 1.13357548 -16.16165788 3.02814022 -22.5625 6.78515625 Z " fill="#D9D9D9" transform="translate(613.6875,169.90234375)"/>
<path d="M0 0 C6.27 0 12.54 0 19 0 C19.04898438 2.25199219 19.09796875 4.50398437 19.1484375 6.82421875 C19.20251196 9.01528326 19.25979391 11.20624218 19.31738281 13.3972168 C19.35556704 14.91503978 19.39043808 16.43295001 19.421875 17.95092773 C19.46775628 20.13817431 19.52571029 22.32482582 19.5859375 24.51171875 C19.63306885 26.48338013 19.63306885 26.48338013 19.68115234 28.49487305 C19.98083769 31.78934661 20.47010333 34.08463272 22 37 C24.40545638 38.20272819 25.94996953 38.10071472 28.625 38.0625 C29.85089844 38.04896484 29.85089844 38.04896484 31.1015625 38.03515625 C31.72804688 38.02355469 32.35453125 38.01195312 33 38 C34.23323001 34.12037251 34.22322949 30.2031527 34.31640625 26.171875 C34.33718735 25.42286926 34.35796844 24.67386353 34.37937927 23.90216064 C34.44457088 21.51819712 34.50361783 19.13412688 34.5625 16.75 C34.60571416 15.13019746 34.64932937 13.51040557 34.69335938 11.890625 C34.80097311 7.92719095 34.90027164 3.96367166 35 0 C41.6 0 48.2 0 55 0 C55 18.48 55 36.96 55 56 C48.4 56 41.8 56 35 56 C34.67 55.01 34.34 54.02 34 53 C33.278125 53.495 32.55625 53.99 31.8125 54.5 C26.08045204 57.345601 18.5924952 57.01576941 12.5546875 55.30859375 C6.99685088 52.78326495 3.30658856 49.04529073 0.87939453 43.38818359 C-0.24167022 39.0688786 -0.24963136 35.10522527 -0.1953125 30.6640625 C-0.1924826 29.78471039 -0.18965271 28.90535828 -0.18673706 27.99935913 C-0.17559712 25.20776406 -0.15050411 22.4164971 -0.125 19.625 C-0.1149622 17.72526507 -0.10583775 15.82552508 -0.09765625 13.92578125 C-0.07738484 9.28362795 -0.03822471 4.64217859 0 0 Z M3 4 C2.9500458 7.96521085 2.91402213 11.93029631 2.89013672 15.89575195 C2.87529755 17.89736377 2.84986639 19.89888812 2.82421875 21.90039062 C2.68980939 35.87891633 2.68980939 35.87891633 9 48 C13.22824066 51.47655343 16.52525759 52.81121578 22 53 C28.0580707 52.34125833 31.67464818 50.22236726 36 46 C36.66 45.01 37.32 44.02 38 43 C38.495 47.455 38.495 47.455 39 52 C42.96 52 46.92 52 51 52 C51 36.16 51 20.32 51 4 C47.04 4 43.08 4 39 4 C38.9906543 4.90766113 38.98130859 5.81532227 38.97167969 6.75048828 C38.92749516 10.13926814 38.86580889 13.52681226 38.79248047 16.91503906 C38.7643689 18.37748705 38.74310569 19.8400842 38.72900391 21.30273438 C38.70743581 23.41353169 38.66072344 25.52255429 38.609375 27.6328125 C38.58842773 28.90012207 38.56748047 30.16743164 38.54589844 31.47314453 C37.91077663 35.57644043 36.57973685 37.78347738 34 41 C30.54220666 42.72889667 26.78733529 42.34728161 23 42 C20.0625 40.9375 20.0625 40.9375 18 39 C15.24795578 32.1346854 15.55194833 24.86530489 15.375 17.5625 C15.33632813 16.25861328 15.29765625 14.95472656 15.2578125 13.61132812 C15.16393548 10.4077749 15.080896 7.2039073 15 4 C11.04 4 7.08 4 3 4 Z " fill="#D9D9D9" transform="translate(646,169)"/>
<path d="M0 0 C6.27 0 12.54 0 19 0 C19.66 0.99 20.32 1.98 21 3 C21.7425 2.505 22.485 2.01 23.25 1.5 C29.25217493 -1.49395899 36.53380713 -0.64687026 42.8125 1 C49.11429052 4.95406464 53.06891189 9.7969952 55 17 C55.25783824 20.04286425 55.23363295 23.065272 55.1953125 26.1171875 C55.1924826 26.97434357 55.18965271 27.83149963 55.18673706 28.71463013 C55.17559999 31.43489932 55.1505076 34.15483141 55.125 36.875 C55.11496182 38.72655772 55.10583744 40.57812064 55.09765625 42.4296875 C55.07738891 46.95335732 55.03822842 51.47630419 55 56 C48.73 56 42.46 56 36 56 C35.95101562 53.90398437 35.90203125 51.80796875 35.8515625 49.6484375 C35.79744561 47.60295905 35.74018048 45.55759106 35.68261719 43.51220703 C35.64449762 42.09822937 35.60961596 40.68416035 35.578125 39.27001953 C35.53210142 37.2291616 35.47417333 35.1889234 35.4140625 33.1484375 C35.3826416 31.92302246 35.3512207 30.69760742 35.31884766 29.43505859 C34.89890884 24.91090918 34.26880626 21.26880626 31 18 C26.46060686 17.5002328 26.46060686 17.5002328 22.30712891 19.03857422 C20.29587191 22.05658668 20.53918408 25.18528781 20.5234375 28.6953125 C20.50006821 29.81738602 20.50006821 29.81738602 20.47622681 30.96212769 C20.42871319 33.34974145 20.40094018 35.73706259 20.375 38.125 C20.33854689 40.51987345 20.29798166 42.91457961 20.25234985 45.30929565 C20.22505794 46.79936958 20.20373512 48.28956655 20.18881226 49.77981567 C20.11066202 54.88933798 20.11066202 54.88933798 19 56 C12.73 56 6.46 56 0 56 C0 37.52 0 19.04 0 0 Z M4 4 C4 19.84 4 35.68 4 52 C7.96 52 11.92 52 16 52 C16.0093457 51.05680908 16.01869141 50.11361816 16.02832031 49.1418457 C16.0724431 45.62824458 16.13410205 42.11584747 16.20751953 38.6027832 C16.2356717 37.08499315 16.2569149 35.56705807 16.27099609 34.04907227 C16.29250723 31.86138979 16.33919228 29.67544035 16.390625 27.48828125 C16.41157227 26.17384033 16.43251953 24.85939941 16.45410156 23.50512695 C17.07998965 19.48639922 18.11148176 17.81469763 21 15 C25.56598329 13.47800557 29.39892714 13.25283266 33.8125 15.3125 C36 17 36 17 38 20 C38.23965047 22.46384903 38.37242 24.82540576 38.4140625 27.29296875 C38.43342865 27.99899734 38.4527948 28.70502594 38.4727478 29.43244934 C38.53245224 31.68401061 38.5788914 33.93562328 38.625 36.1875 C38.66318829 37.71551689 38.70224052 39.24351245 38.7421875 40.77148438 C38.83814596 44.51414935 38.92221011 48.2569151 39 52 C42.96 52 46.92 52 51 52 C51.09951569 47.16200639 51.17177037 42.32461975 51.21972656 37.48583984 C51.23973571 35.8428305 51.26695213 34.19989141 51.30175781 32.55712891 C51.35075305 30.18374212 51.37307504 27.81130351 51.390625 25.4375 C51.41127014 24.71320801 51.43191528 23.98891602 51.45318604 23.24267578 C51.45555474 17.7536028 50.0199653 13.59553449 47 9 C41.85354443 4.10459104 37.57611773 3.69876656 30.72265625 3.7890625 C26.3904572 4.12469916 23.53905868 5.39135622 20.53125 8.53515625 C19.3014449 9.98017724 18.14387579 11.48604675 17 13 C16.67 10.03 16.34 7.06 16 4 C12.04 4 8.08 4 4 4 Z " fill="#D9D9D9" transform="translate(923,169)"/>
<path d="M0 0 C6.27 0 12.54 0 19 0 C19 1.32 19 2.64 19 4 C20.60875 3.01 20.60875 3.01 22.25 2 C28.29437187 -1.00075199 34.86729881 -1.16793729 41.3359375 0.66015625 C46.283624 2.8496497 50.24156056 6.3352505 53 11 C54.8965847 16.4652959 55.27005201 21.23943802 55.1953125 26.99609375 C55.1924826 27.82963882 55.18965271 28.6631839 55.18673706 29.52198792 C55.17562289 32.1606436 55.15053515 34.79894848 55.125 37.4375 C55.11495885 39.23632319 55.10583499 41.03515175 55.09765625 42.83398438 C55.07742152 47.22289717 55.0382571 51.6110601 55 56 C48.4 56 41.8 56 35 56 C34.97421875 53.59203125 34.9484375 51.1840625 34.921875 48.703125 C34.88344233 46.36641844 34.83828635 44.02993165 34.79248047 41.69335938 C34.76428653 40.07172163 34.74306406 38.44994687 34.72900391 36.828125 C34.70755128 34.49407895 34.66089425 32.16167739 34.609375 29.828125 C34.60814636 29.10506165 34.60691772 28.38199829 34.60565186 27.63702393 C34.50651955 24.21640251 34.23048129 22.30726776 32.15332031 19.53808594 C29.24581094 17.46129353 27.49602957 17.47931474 24 18 C21.44050454 19.85342775 21.02081202 20.93756393 20 24 C19.84730819 26.43780377 19.74317303 28.85283901 19.68359375 31.29296875 C19.66281265 31.99899734 19.64203156 32.70502594 19.62062073 33.43244934 C19.55532509 35.68403551 19.49633353 37.93573662 19.4375 40.1875 C19.39429575 41.7155066 19.35068084 43.24350164 19.30664062 44.77148438 C19.1988925 48.51420689 19.09967145 52.25701879 19 56 C12.73 56 6.46 56 0 56 C0 37.52 0 19.04 0 0 Z M3 4 C3 19.84 3 35.68 3 52 C6.96 52 10.92 52 15 52 C15.04898437 50.13214844 15.09796875 48.26429688 15.1484375 46.33984375 C15.22349338 43.87238165 15.29903999 41.40493444 15.375 38.9375 C15.4059375 37.70837891 15.436875 36.47925781 15.46875 35.21289062 C15.93852949 20.68887457 15.93852949 20.68887457 19.4375 16.125 C23.05479135 13.52055023 26.71303985 13.70434758 31 14 C33.75445745 15.22420331 35.42995656 16.14756581 37.11083984 18.66113281 C38.3317459 21.87263199 38.32968291 24.74043826 38.4140625 28.171875 C38.43342865 28.8542926 38.4527948 29.53671021 38.4727478 30.23980713 C38.53231098 32.40974608 38.57883446 34.57973877 38.625 36.75 C38.66320131 38.22528297 38.7022543 39.70054415 38.7421875 41.17578125 C38.83799235 44.78365418 38.92210916 48.39169083 39 52 C42.96 52 46.92 52 51 52 C51.09968761 47.32273411 51.17184934 42.64610125 51.21972656 37.96801758 C51.23970745 36.38034274 51.26690203 34.79274021 51.30175781 33.20532227 C51.85558333 20.4657436 51.85558333 20.4657436 47 9 C42.81796786 5.05943655 39.12509629 3.69558151 33.375 3.5 C28.21499248 3.77082912 24.25670885 4.5793961 20.6015625 8.5 C19.37299768 9.9771184 18.18409006 11.48699603 17 13 C16.01 13.495 16.01 13.495 15 14 C15 10.7 15 7.4 15 4 C11.04 4 7.08 4 3 4 Z " fill="#D9D9D9" transform="translate(306,169)"/>
<path d="M0 0 C6.6 0 13.2 0 20 0 C20 23.76 20 47.52 20 72 C13.4 72 6.8 72 0 72 C-0.33 71.01 -0.66 70.02 -1 69 C-1.804375 69.474375 -2.60875 69.94875 -3.4375 70.4375 C-10.49929284 73.53477756 -16.43431486 73.52316327 -23.7109375 71 C-30.63237599 67.97629991 -34.0144904 62.64900344 -37 56 C-39.89153499 47.56330614 -38.99972199 35.91165942 -35.19140625 27.9765625 C-33.44562266 25.0802789 -31.65075608 23.10855597 -29 21 C-28.47019531 20.5359375 -27.94039063 20.071875 -27.39453125 19.59375 C-22.0340679 15.47910862 -16.9662825 15.47246073 -10.3671875 15.53125 C-7 16 -7 16 -1 19 C-0.67 12.73 -0.34 6.46 0 0 Z M4 3 C3.67 11.58 3.34 20.16 3 29 C0.525 26.03 0.525 26.03 -2 23 C-7.36981084 19.68671246 -11.69972204 18.63487651 -17.9375 19.625 C-24.29628726 21.49380389 -28.51447367 24.59143071 -31.9375 30.3125 C-35.37210513 37.94622369 -35.46831881 47.10353006 -33.078125 55.07421875 C-30.21046502 61.30299968 -26.6057016 65.05846837 -20.5625 68.3125 C-14.34145305 69.98156138 -8.55816636 69.15778424 -3 66 C-0.47222996 63.65947219 1.45242372 61.09515257 3 58 C3.495 62.95 3.495 62.95 4 68 C7.96 68 11.92 68 16 68 C16 46.55 16 25.1 16 3 C12.04 3 8.08 3 4 3 Z " fill="#D9D9D9" transform="translate(498,153)"/>
<path d="M0 0 C7.13085676 4.31732144 11.27636625 9.90608356 13.3125 17.9375 C13.3125 22.5575 13.3125 27.1775 13.3125 31.9375 C1.7625 31.9375 -9.7875 31.9375 -21.6875 31.9375 C-21.3575 33.2575 -21.0275 34.5775 -20.6875 35.9375 C-19.27595901 36.21498242 -17.85770201 36.45843516 -16.4375 36.6875 C-15.64859375 36.82671875 -14.8596875 36.9659375 -14.046875 37.109375 C-13.26828125 37.05265625 -12.4896875 36.9959375 -11.6875 36.9375 C-10.86765625 35.96296875 -10.86765625 35.96296875 -10.03125 34.96875 C-6.27551472 31.71377942 -2.22529826 32.51315441 2.5625 32.6875 C3.96628906 32.71457031 3.96628906 32.71457031 5.3984375 32.7421875 C7.70417015 32.78924327 10.00780945 32.85496287 12.3125 32.9375 C11.40748798 39.57425483 9.37581596 44.19441234 4.33203125 48.7109375 C-3.1207751 54.11916866 -11.08466191 55.78716602 -20.17578125 54.53125 C-28.65558347 52.52669333 -34.80397392 48.10571664 -39.6875 40.9375 C-43.65700314 32.81806175 -43.50313451 22.39848171 -40.6875 13.9375 C-37.53641147 6.80943279 -32.32639128 2.29337672 -25.44921875 -1.19921875 C-17.75375846 -3.60473038 -7.35016961 -3.40617616 0 0 Z M-33.375 9.625 C-37.43281548 14.82162176 -39.29023202 21.34642243 -38.96484375 27.90625 C-37.87674433 35.87542883 -34.64640021 41.53764373 -28.6875 46.9375 C-22.42853337 50.81805931 -15.75162061 51.99701459 -8.484375 50.4765625 C-2.95315605 48.87740056 1.58986476 46.4129119 5.3125 41.9375 C6.50588074 39.33332125 6.50588074 39.33332125 7.3125 36.9375 C5.20896505 36.8564794 3.10454048 36.79830093 1 36.75 C-0.17175781 36.71519531 -1.34351563 36.68039063 -2.55078125 36.64453125 C-6.01758425 36.96832979 -6.5553875 37.37766888 -8.6875 39.9375 C-12.83791305 41.0549189 -15.28442555 41.05170443 -19.4375 39.875 C-23.23645909 37.61023593 -24.18155917 36.03700559 -25.6875 31.9375 C-26.0175 30.6175 -26.3475 29.2975 -26.6875 27.9375 C-14.8075 27.9375 -2.9275 27.9375 9.3125 27.9375 C9.3125 19.08942349 8.90341234 15.7128294 4.125 8.75 C-0.58536487 4.03963513 -5.80812255 1.44621944 -12.546875 0.90234375 C-21.17159808 1.04399066 -27.24840601 3.49840601 -33.375 9.625 Z " fill="#D9D9D9" transform="translate(747.6875,171.0625)"/>
<path d="M0 0 C6.57003888 3.96660511 11.22405817 9.51192905 13.3125 16.9375 C13.3125 21.8875 13.3125 26.8375 13.3125 31.9375 C1.7625 31.9375 -9.7875 31.9375 -21.6875 31.9375 C-19.2125 34.4125 -19.2125 34.4125 -16.6875 36.9375 C-13.01166555 37.11511741 -13.01166555 37.11511741 -9.6875 35.9375 C-9.0275 34.9475 -8.3675 33.9575 -7.6875 32.9375 C-5.53271484 32.59692383 -5.53271484 32.59692383 -2.8984375 32.64453125 C-1.95742188 32.65419922 -1.01640625 32.66386719 -0.046875 32.67382812 C0.93796875 32.69896484 1.9228125 32.72410156 2.9375 32.75 C4.42636719 32.77030273 4.42636719 32.77030273 5.9453125 32.79101562 C8.40158072 32.82644257 10.85677285 32.87583804 13.3125 32.9375 C10.95060401 40.79254552 8.3361463 46.60125889 1.27734375 51.2890625 C-6.29223505 55.10819663 -14.89610171 55.98501427 -23.0625 53.75 C-30.63889517 51.03895764 -35.60651096 46.84568024 -39.6875 39.9375 C-41.59324741 35.34166696 -42.07423003 31.0545442 -42.0625 26.125 C-42.06088867 25.42012451 -42.05927734 24.71524902 -42.05761719 23.98901367 C-41.86898119 15.95256522 -39.30200696 9.71713952 -33.6875 3.9375 C-24.23280069 -3.10323353 -10.96890471 -5.08315096 0 0 Z M-30.6875 6.9375 C-37.32676692 14.52969699 -38.16680712 20.19158391 -37.9609375 30.23046875 C-37.47458506 36.82401827 -35.21198033 40.73526536 -30.5 45.25 C-24.73046697 49.78408698 -17.983139 51.71917561 -10.6875 50.9375 C-4.29108781 49.56684025 1.06724372 47.04121531 5.3125 41.9375 C6.50588074 39.33332125 6.50588074 39.33332125 7.3125 36.9375 C5.20896505 36.8564794 3.10454048 36.79830093 1 36.75 C-0.17175781 36.71519531 -1.34351563 36.68039063 -2.55078125 36.64453125 C-6.01758425 36.96832979 -6.5553875 37.37766888 -8.6875 39.9375 C-14.47953393 41.49689375 -17.60601316 40.72733591 -22.6875 37.9375 C-24.6875 34.9375 -24.6875 34.9375 -26.6875 27.9375 C-14.8075 27.9375 -2.9275 27.9375 9.3125 27.9375 C10.82375419 21.89248323 9.4933586 17.13052311 6.5625 11.6875 C1.33434028 5.29752701 -4.09241133 1.8406992 -12.44140625 0.97265625 C-19.27837616 0.86564281 -25.46501127 2.42716882 -30.6875 6.9375 Z " fill="#D9D9D9" transform="translate(564.6875,171.0625)"/>
<path d="M0 0 C6.57003888 3.96660511 11.22405817 9.51192905 13.3125 16.9375 C13.3125 21.8875 13.3125 26.8375 13.3125 31.9375 C1.7625 31.9375 -9.7875 31.9375 -21.6875 31.9375 C-19.2125 34.4125 -19.2125 34.4125 -16.6875 36.9375 C-13.01166555 37.11511741 -13.01166555 37.11511741 -9.6875 35.9375 C-9.0275 34.9475 -8.3675 33.9575 -7.6875 32.9375 C-5.53271484 32.59692383 -5.53271484 32.59692383 -2.8984375 32.64453125 C-1.95742188 32.65419922 -1.01640625 32.66386719 -0.046875 32.67382812 C0.93796875 32.69896484 1.9228125 32.72410156 2.9375 32.75 C4.42636719 32.77030273 4.42636719 32.77030273 5.9453125 32.79101562 C8.40158072 32.82644257 10.85677285 32.87583804 13.3125 32.9375 C10.95060401 40.79254552 8.3361463 46.60125889 1.27734375 51.2890625 C-6.29223505 55.10819663 -14.89610171 55.98501427 -23.0625 53.75 C-30.63889517 51.03895764 -35.60651096 46.84568024 -39.6875 39.9375 C-41.59324741 35.34166696 -42.07423003 31.0545442 -42.0625 26.125 C-42.06088867 25.42012451 -42.05927734 24.71524902 -42.05761719 23.98901367 C-41.86898119 15.95256522 -39.30200696 9.71713952 -33.6875 3.9375 C-24.23280069 -3.10323353 -10.96890471 -5.08315096 0 0 Z M-30.6875 6.9375 C-37.32676692 14.52969699 -38.16680712 20.19158391 -37.9609375 30.23046875 C-37.47458506 36.82401827 -35.21198033 40.73526536 -30.5 45.25 C-24.73046697 49.78408698 -17.983139 51.71917561 -10.6875 50.9375 C-4.29108781 49.56684025 1.06724372 47.04121531 5.3125 41.9375 C6.50588074 39.33332125 6.50588074 39.33332125 7.3125 36.9375 C5.20896505 36.8564794 3.10454048 36.79830093 1 36.75 C-0.17175781 36.71519531 -1.34351563 36.68039063 -2.55078125 36.64453125 C-6.01758425 36.96832979 -6.5553875 37.37766888 -8.6875 39.9375 C-14.47953393 41.49689375 -17.60601316 40.72733591 -22.6875 37.9375 C-24.6875 34.9375 -24.6875 34.9375 -26.6875 27.9375 C-14.8075 27.9375 -2.9275 27.9375 9.3125 27.9375 C10.82375419 21.89248323 9.4933586 17.13052311 6.5625 11.6875 C1.33434028 5.29752701 -4.09241133 1.8406992 -12.44140625 0.97265625 C-19.27837616 0.86564281 -25.46501127 2.42716882 -30.6875 6.9375 Z " fill="#D9D9D9" transform="translate(444.6875,171.0625)"/>
<path d="M0 0 C6.93 0 13.86 0 21 0 C25.5012971 10.12791847 25.5012971 10.12791847 27.27416992 14.99121094 C27.67105515 16.07553406 28.06794037 17.15985718 28.47685242 18.27703857 C28.89054581 19.41795959 29.3042392 20.55888062 29.73046875 21.734375 C30.16635818 22.93056458 30.60224762 24.12675415 31.05134583 25.35919189 C31.96641062 27.8731754 32.88016332 30.38758928 33.79174805 32.90283203 C34.95714842 36.1177261 36.12873527 39.33032549 37.30208874 42.54232407 C38.42750612 45.6259182 39.5474775 48.71148811 40.66796875 51.796875 C41.08773483 52.94589294 41.50750092 54.09491089 41.93998718 55.27874756 C42.32741592 56.35046204 42.71484467 57.42217651 43.11401367 58.52636719 C43.6255323 59.93459747 43.6255323 59.93459747 44.14738464 61.37127686 C45 64 45 64 46 69 C39.07 69 32.14 69 25 69 C23.68 65.37 22.36 61.74 21 58 C14.07 57.67 7.14 57.34 0 57 C-0.99 60.3 -1.98 63.6 -3 67 C-3.33 67.66 -3.66 68.32 -4 69 C-10.6 69 -17.2 69 -24 69 C-22.87492715 61.12449003 -22.87492715 61.12449003 -21.52880859 57.4519043 C-21.23114594 56.62961838 -20.93348328 55.80733246 -20.62680054 54.96012878 C-20.30394073 54.09027847 -19.98108093 53.22042816 -19.6484375 52.32421875 C-19.31131744 51.40018753 -18.97419739 50.47615631 -18.62686157 49.52412415 C-17.5492827 46.57620214 -16.46209074 43.63192564 -15.375 40.6875 C-14.66738238 38.75216742 -13.96034608 36.81662219 -13.25390625 34.88085938 C-8.97793145 23.19633703 -4.54679155 11.58178792 0 0 Z M3 4 C-1.68160909 14.78927948 -5.65282042 25.81539357 -9.64038086 36.87597656 C-10.82273414 40.15336823 -12.01168595 43.42831621 -13.20117188 46.703125 C-13.95351849 48.78371192 -14.70548573 50.86443608 -15.45703125 52.9453125 C-15.81320023 53.9254129 -16.1693692 54.90551331 -16.53633118 55.91531372 C-16.8605455 56.8174057 -17.18475983 57.71949768 -17.51879883 58.64892578 C-17.80572098 59.44324005 -18.09264313 60.23755432 -18.38825989 61.05593872 C-19.10005375 62.97828977 -19.10005375 62.97828977 -19 65 C-15.04 65 -11.08 65 -7 65 C-5.68 61.7 -4.36 58.4 -3 55 C6.24 54.67 15.48 54.34 25 54 C25.66 56.97 26.32 59.94 27 63 C27.33 63.66 27.66 64.32 28 65 C31.96 65 35.92 65 40 65 C39.40977378 60.87658526 38.48247791 57.17858751 37.05053711 53.27001953 C36.6501976 52.16933136 36.24985809 51.06864319 35.83738708 49.93460083 C35.18891563 48.17646561 35.18891563 48.17646561 34.52734375 46.3828125 C34.0848378 45.17051971 33.64233185 43.95822693 33.18641663 42.709198 C32.01559663 39.50179285 30.83852318 36.29671841 29.66009521 33.09210205 C28.45643167 29.81540028 27.25874813 26.53651471 26.06054688 23.2578125 C23.71285083 16.83639995 21.35798505 10.41764141 19 4 C13.72 4 8.44 4 3 4 Z " fill="#D9D9D9" transform="translate(257,156)"/>
<path d="M0 0 C6.27 0 12.54 0 19 0 C19 3.96 19 7.92 19 12 C22.63 12 26.26 12 30 12 C30 17.61 30 23.22 30 29 C26.37 29 22.74 29 19 29 C19 35.93 19 42.86 19 50 C22.63 50.33 26.26 50.66 30 51 C30 56.61 30 62.22 30 68 C11.27272727 68.54545455 11.27272727 68.54545455 4.0625 62.5625 C0.51862615 58.15950522 -0.2489504 55.38874228 -0.1953125 49.703125 C-0.18564453 47.89521484 -0.18564453 47.89521484 -0.17578125 46.05078125 C-0.15902344 44.79652344 -0.14226562 43.54226562 -0.125 42.25 C-0.11597656 40.98027344 -0.10695313 39.71054688 -0.09765625 38.40234375 C-0.07409005 35.26803907 -0.04118832 32.13411459 0 29 C-2.31 29 -4.62 29 -7 29 C-7 23.39 -7 17.78 -7 12 C-4.69 12 -2.38 12 0 12 C0 8.04 0 4.08 0 0 Z M3 3 C3 7.29 3 11.58 3 16 C1.02 16 -0.96 16 -3 16 C-3 19.3 -3 22.6 -3 26 C-1.02 26 0.96 26 3 26 C2.98952637 26.65484375 2.97905273 27.3096875 2.96826172 27.984375 C2.92634641 30.98954332 2.90056191 33.99464984 2.875 37 C2.85824219 38.02996094 2.84148437 39.05992187 2.82421875 40.12109375 C2.77878577 47.25407213 2.90405059 53.67539059 6.8125 59.875 C9.98632658 62.95814582 12.70055649 63.91847908 17.11328125 64.1953125 C18.16902344 64.17210937 19.22476562 64.14890625 20.3125 64.125 C21.38113281 64.10695312 22.44976562 64.08890625 23.55078125 64.0703125 C24.76314453 64.03550781 24.76314453 64.03550781 26 64 C26 60.7 26 57.4 26 54 C24.72125 53.9175 23.4425 53.835 22.125 53.75 C19.9453125 53.609375 19.9453125 53.609375 18 53 C15.9896686 49.88237377 15.70801089 47.24032664 15.5859375 43.578125 C15.54726563 42.55332031 15.50859375 41.52851563 15.46875 40.47265625 C15.4378125 39.40917969 15.406875 38.34570312 15.375 37.25 C15.33632813 36.17105469 15.29765625 35.09210938 15.2578125 33.98046875 C15.16365752 31.32059068 15.0807445 28.66031894 15 26 C18.63 26 22.26 26 26 26 C26 22.7 26 19.4 26 16 C22.37 16 18.74 16 15 16 C15 11.71 15 7.42 15 3 C11.04 3 7.08 3 3 3 Z " fill="#D9D9D9" transform="translate(371,157)"/>
<path d="M0 0 C1.11930908 0.00966797 1.11930908 0.00966797 2.26123047 0.01953125 C10.82730327 0.30203137 16.70151745 3.09468291 22.625 9.3125 C28.97942509 17.39041302 29.72569335 25.33483218 28.6875 35.5 C26.91529027 42.36163253 24.02520219 48.4248399 17.84765625 52.265625 C16.82542969 52.75546875 15.80320312 53.2453125 14.75 53.75 C13.73035156 54.25015625 12.71070313 54.7503125 11.66015625 55.265625 C2.96569268 58.87594102 -5.69684308 57.90759502 -14.3125 54.5 C-22.04417133 50.05164116 -25.55587256 44.76988233 -28.3125 36.5 C-29.06730309 27.00026399 -29.36158761 18.41933691 -23.3125 10.5 C-16.79821943 3.33156574 -9.68393294 -0.08757796 0 0 Z M-19.3125 11.5 C-24.51790041 18.00675052 -25.03757777 24.87658612 -24.7265625 33.00390625 C-23.96768229 39.41143254 -21.76939526 43.34975568 -17.1875 47.8125 C-11.65923493 52.1569824 -4.39307165 54.16376028 2.6171875 53.8515625 C9.6821657 52.65184922 15.65871851 49.52878149 20.6875 44.5 C25.64009464 37.49805585 25.3592237 29.83123982 24.6875 21.5 C22.95789246 15.43697357 19.19840239 10.73489701 13.87109375 7.34375 C2.73839499 1.24364109 -10.01004322 2.72858898 -19.3125 11.5 Z " fill="#D9D9D9" transform="translate(889.3125,168.5)"/>
<path d="M0 0 C2.9173329 1.77576785 4.5260815 3.23270338 6.3125 6.125 C7.64232555 11.68608866 7.68748983 16.93753051 5.875 22.375 C3.55432819 25.62394054 1.57545601 27.212272 -2 29 C-5.79611 29.46618895 -8.16108808 29.35117243 -11.6875 27.875 C-15.5246167 24.76382429 -17.7038992 22.18037864 -18.38671875 17.15234375 C-18.55984903 12.33454585 -18.39185232 8.85906086 -16.375 4.4375 C-11.38356425 -0.68528933 -6.77339726 -2.05296783 0 0 Z M-12 6 C-14.15164703 9.22747055 -14.27245079 10.20505639 -14.25 13.9375 C-14.25515625 14.79214844 -14.2603125 15.64679688 -14.265625 16.52734375 C-13.97995383 19.18660622 -13.44968995 20.76264518 -12 23 C-8.23500419 25.5099972 -6.45706394 25.61476744 -2 25 C1.33458323 22.30395398 2.65941667 20.73614431 3.48046875 16.55078125 C3.73142668 12.01319065 3.49986774 9.69981483 0.8125 5.9375 C-4.27408578 2.43340757 -7.00029329 2.21643817 -12 6 Z " fill="#D9D9D9" transform="translate(895,183)"/>
<path d="M0 0 C3.462615 1.32610787 4.64814304 2.51468006 6.8125 5.5 C8.90510552 11.66767942 9.11086315 17.51166654 6.4375 23.5 C3.06371616 26.96029111 -0.1226813 28.8687155 -5.0546875 29.09375 C-9.81543398 28.73444838 -12.74713523 27.44420976 -16 24 C-18.78443275 19.49187079 -18.54188275 14.13095229 -18 9 C-14.52775783 0.59351896 -8.43942761 -1.12618391 0 0 Z M-12 6 C-14.81454595 10.22181892 -14.80684081 14.04030209 -14 19 C-11.74942433 22.08798674 -11.74942433 22.08798674 -9 24 C-8.67 24.33 -8.34 24.66 -8 25 C-4.14696032 25.43784542 -2.45877878 25.30585252 0.8125 23.125 C3.88447393 20.14079676 4.2120468 18.3678764 4.375 14.1875 C4.33541142 10.2738864 4.174145 9.243803 1.8125 5.9375 C-3.59436584 2.2127702 -6.42536948 2.53134101 -12 6 Z " fill="#D9D9D9" transform="translate(494,183)"/>
<path d="M0 0 C4.11112649 2.05556325 6.34875115 3.73365117 8 8 C8.30078125 10.83984375 8.30078125 10.83984375 8.3125 13.9375 C8.32925781 14.95714844 8.34601562 15.97679687 8.36328125 17.02734375 C7.8592961 21.15135128 6.16708114 23.74314339 3.375 26.75 C-0.28080106 28.67410582 -3.88915724 29.11787363 -8 29 C-12.18557804 27.32576878 -14.43944561 24.65793485 -17 21 C-18.676194 15.97141801 -18.60642735 11.65969589 -16.8125 6.75 C-12.36319593 -0.00066824 -7.78883873 -1.2462142 0 0 Z M-12.8125 7.6875 C-14.55441178 11.079644 -14.55054353 14.30768804 -14 18 C-12.36312815 21.58552881 -11.31027417 22.79315055 -8 25 C-3.69825813 25.5576332 -1.72419419 25.50378727 1.875 23 C4.50249121 19.29060065 5.30136246 16.52043695 5 12 C3.72283436 8.23945674 2.67568061 6.50676046 -0.5 4.125 C-5.71411565 1.77864796 -8.90783652 4.05212366 -12.8125 7.6875 Z " fill="#D9D9D9" transform="translate(614,183)"/>
<path d="M0 0 C2 1 2 1 3.05322266 3.56030273 C3.4197998 4.67348877 3.78637695 5.7866748 4.1640625 6.93359375 C4.56367188 8.13951172 4.96328125 9.34542969 5.375 10.58789062 C5.57996094 11.21928955 5.78492188 11.85068848 5.99609375 12.5012207 C6.62214147 14.42869913 7.2592708 16.35222766 7.8984375 18.27539062 C11 27.70595323 11 27.70595323 11 30 C4.07 30 -2.86 30 -10 30 C-7.08640808 19.76080553 -4.02936084 9.8590744 0 0 Z M0 11 C-0.67220351 12.93558599 -1.33758077 14.87354372 -2 16.8125 C-2.37125 17.89144531 -2.7425 18.97039062 -3.125 20.08203125 C-4.14361512 22.97120802 -4.14361512 22.97120802 -4 26 C-0.7 26 2.6 26 6 26 C4.35 21.05 2.7 16.1 1 11 C0.67 11 0.34 11 0 11 Z " fill="#D9D9D9" transform="translate(267,171)"/>
<path d="M0 0 C2.125 2.4375 2.125 2.4375 3.125 10.4375 C-4.795 10.4375 -12.715 10.4375 -20.875 10.4375 C-19.65456989 3.11491935 -19.65456989 3.11491935 -15.875 -0.5625 C-10.25850687 -3.30834109 -5.46803024 -2.97175556 0 0 Z M-14.875 4.4375 C-15.205 5.0975 -15.535 5.7575 -15.875 6.4375 C-10.925 6.4375 -5.975 6.4375 -0.875 6.4375 C-3.38512439 2.29265149 -3.38512439 2.29265149 -6.75 1.5 C-10.45082207 1.42598356 -11.97517533 2.2004924 -14.875 4.4375 Z " fill="#D9D9D9" transform="translate(741.875,183.5625)"/>
<path d="M0 0 C2.5625 2.25 2.5625 2.25 4 5 C4 6.98 4 8.96 4 11 C-3.92 11 -11.84 11 -20 11 C-17.6460177 2.76106195 -17.6460177 2.76106195 -13 -1 C-8.48672236 -2.61054721 -4.39481445 -1.6289037 0 0 Z M-14 5 C-14.33 5.66 -14.66 6.32 -15 7 C-10.05 7 -5.1 7 0 7 C-2.51012439 2.85515149 -2.51012439 2.85515149 -5.875 2.0625 C-9.57582207 1.98848356 -11.10017533 2.7629924 -14 5 Z " fill="#D9D9D9" transform="translate(558,183)"/>
<path d="M0 0 C2.5625 2.25 2.5625 2.25 4 5 C4 6.98 4 8.96 4 11 C-3.92 11 -11.84 11 -20 11 C-17.6460177 2.76106195 -17.6460177 2.76106195 -13 -1 C-8.48672236 -2.61054721 -4.39481445 -1.6289037 0 0 Z M-14 5 C-14.33 5.66 -14.66 6.32 -15 7 C-10.05 7 -5.1 7 0 7 C-2.51012439 2.85515149 -2.51012439 2.85515149 -5.875 2.0625 C-9.57582207 1.98848356 -11.10017533 2.7629924 -14 5 Z " fill="#D9D9D9" transform="translate(438,183)"/>
<path d="M0 0 C1.98 0 3.96 0 6 0 C6 1.98 6 3.96 6 6 C4.02 6 2.04 6 0 6 C0 4.02 0 2.04 0 0 Z " fill="#E0E0E0" transform="translate(148,137)"/>
</svg>
